<svg xmlns="http://www.w3.org/2000/svg" width="157.747" height="183.060" viewBox="0 0 157.747 183.060" fill="none">
  <path d="M 85.312 72.689 C 87.432 72.729 88.992 74.649 88.672 76.769 L 83.712 120.129 C 83.432 121.889 81.952 123.169 80.192 123.129 L 4.192 121.529 C 2.152 121.489 0.552 119.649 0.832 117.569 L 1.032 116.249 L 1.192 116.249 C 1.432 117.849 2.792 119.089 4.472 119.129 L 78.472 120.649 C 80.152 120.689 81.632 119.449 81.872 117.809 L 86.712 76.329 C 86.992 74.569 85.832 72.929 84.192 72.489 L 85.312 72.689 Z" fill="currentColor" fill-rule="nonzero"></path>
  <path d="M 84.092 71.884 L 84.104 71.885 L 84.104 71.886 L 85.298 72.005 C 87.851 72.084 89.691 74.401 89.311 76.918 L 84.354 120.251 L 84.353 120.268 L 84.35 120.284 C 84.015 122.386 82.236 123.944 80.096 123.896 L 4.097 122.296 L 4.097 122.295 C 1.607 122.246 -0.258 120.01 0.029 117.526 L 0.031 117.513 L 0.033 117.501 L 0.233 116.18 C 0.294 115.783 0.664 115.51 1.061 115.57 C 1.458 115.631 1.731 116.001 1.671 116.398 L 1.472 117.705 C 1.287 119.374 2.54 120.81 4.126 120.842 L 4.127 120.842 L 80.128 122.442 L 80.129 122.442 C 81.504 122.473 82.679 121.478 82.91 120.068 L 87.869 76.727 L 87.873 76.7 C 88.13 74.994 86.878 73.488 85.218 73.456 L 85.189 73.455 L 85.159 73.452 L 83.964 73.333 L 83.492 73.294 L 83.346 73.267 C 83.022 73.172 82.798 72.859 82.827 72.508 C 82.86 72.108 83.212 71.811 83.612 71.844 L 84.092 71.884 Z" fill="currentColor" fill-rule="nonzero"></path>
  <path d="M 10.611 69.842 L 10.611 69.843 L 83.371 71.723 L 83.37 71.723 C 83.674 71.725 83.967 71.774 84.192 71.812 L 84.24 71.822 C 86.272 72.306 87.685 74.286 87.312 76.468 L 82.475 117.934 L 82.474 117.945 L 82.472 117.955 C 82.178 119.964 80.377 121.465 78.335 121.416 L 78.335 121.415 L 4.337 119.896 L 4.335 119.896 C 2.297 119.848 0.645 118.343 0.353 116.397 L 0.351 116.379 C 0.303 116 0.303 115.659 0.351 115.28 L 0.352 115.265 L 0.353 115.265 L 6.433 73.425 C 6.686 71.336 8.487 69.794 10.609 69.842 L 10.611 69.842 Z M 10.573 71.296 C 9.183 71.266 8.031 72.274 7.875 73.614 L 7.874 73.624 L 7.872 73.634 L 1.794 115.46 L 1.776 115.649 C 1.764 115.83 1.769 116.001 1.793 116.193 C 1.986 117.442 3.051 118.41 4.369 118.442 L 4.368 118.442 L 78.368 119.962 L 78.37 119.963 C 79.685 119.994 80.841 119.019 81.03 117.753 L 85.869 76.286 L 85.872 76.263 L 85.876 76.242 C 86.125 74.842 85.232 73.564 83.923 73.242 C 83.688 73.203 83.515 73.177 83.352 73.177 L 83.334 73.177 L 10.573 71.296 Z" fill="currentColor" fill-rule="nonzero"></path>
  <path d="M 65.814 84.388 C 66.879 82.839 69.15 83.386 69.588 85.048 L 69.625 85.213 L 69.626 85.222 L 72.775 103.441 L 78.215 103.759 C 78.816 103.795 79.275 104.31 79.24 104.911 C 79.205 105.513 78.689 105.972 78.088 105.937 L 72.607 105.617 L 72.581 105.615 C 71.677 105.539 70.812 104.91 70.637 103.874 L 67.507 85.774 L 56.888 101.109 L 56.887 101.107 C 55.892 102.574 53.639 102.246 53.142 100.507 L 53.142 100.506 L 50.39 91.311 L 41.037 108.233 C 40.141 109.944 37.568 109.666 37.13 107.742 L 32.01 86.426 L 20.702 103.53 L 20.701 103.529 C 20.3 104.174 19.598 104.459 18.951 104.459 L 18.926 104.459 L 8.726 104.218 C 8.124 104.204 7.647 103.705 7.661 103.102 C 7.675 102.5 8.174 102.023 8.776 102.037 L 18.914 102.276 L 30.281 85.086 C 31.322 83.472 33.685 84.054 34.091 85.753 L 34.092 85.753 L 39.206 107.039 L 48.555 90.122 L 48.646 89.972 C 49.588 88.526 51.741 88.786 52.373 90.356 L 52.43 90.517 L 52.437 90.536 L 55.186 99.732 L 65.814 84.387 L 65.814 84.388 Z" fill="currentColor" fill-rule="nonzero"></path>
  <path d="M 152.79 22.169 C 154.99 22.169 157.35 24.489 157.03 26.769 L 153.39 55.209 C 153.15 57.089 151.59 58.529 149.75 58.529 L 70.55 55.689 C 68.39 55.689 66.67 53.729 66.91 51.489 L 67.15 49.889 C 67.03 51.929 68.63 53.689 70.71 53.689 L 147.95 56.329 C 149.75 56.329 151.27 55.009 151.51 53.249 L 155.07 26.209 C 155.35 24.169 153.87 22.329 151.83 22.169 L 152.79 22.169 Z" fill="currentColor" fill-rule="nonzero"></path>
  <path d="M 74.721 19.282 L 74.731 19.283 L 151.327 21.404 L 151.361 21.409 L 151.64 21.443 L 151.9 21.443 L 151.928 21.445 C 154.387 21.638 156.168 23.857 155.832 26.309 L 155.831 26.308 L 152.273 53.345 L 152.272 53.348 C 151.982 55.473 150.149 57.058 147.991 57.058 L 147.978 57.058 L 147.966 57.057 L 70.726 54.417 C 68.234 54.403 66.329 52.294 66.464 49.862 L 66.464 49.716 L 66.472 49.662 L 70.432 23.143 C 70.646 20.942 72.516 19.283 74.711 19.282 L 74.721 19.282 Z M 74.711 20.737 C 73.241 20.737 72.003 21.856 71.876 23.313 L 71.874 23.335 L 71.87 23.357 L 67.918 49.821 L 67.918 49.912 L 67.917 49.933 C 67.821 51.566 69.101 52.963 70.751 52.963 L 70.775 52.963 L 147.991 55.602 C 149.432 55.602 150.64 54.546 150.83 53.152 L 154.39 26.115 L 154.391 26.111 C 154.613 24.49 153.444 23.035 151.834 22.897 L 151.546 22.897 L 151.5 22.891 L 151.213 22.855 L 74.711 20.737 Z" fill="currentColor" fill-rule="nonzero"></path>
  <path d="M 151.266 21.324 L 151.275 21.325 L 151.283 21.325 L 151.838 21.365 L 152.782 21.403 L 152.781 21.404 C 154.108 21.434 155.416 22.123 156.341 23.087 C 157.269 24.054 157.907 25.402 157.712 26.821 L 157.713 26.822 L 154.072 55.26 C 153.789 57.526 151.936 59.217 149.712 59.217 L 149.685 59.217 L 70.485 56.377 L 70.485 56.376 C 67.871 56.361 65.913 54.001 66.147 51.386 L 66.149 51.364 L 66.152 51.343 L 66.392 49.743 L 66.429 49.599 C 66.545 49.282 66.872 49.079 67.219 49.131 C 67.616 49.191 67.89 49.561 67.83 49.958 L 67.595 51.531 C 67.438 53.38 68.824 54.923 70.512 54.923 L 70.538 54.923 L 149.712 57.763 L 149.981 57.75 C 151.321 57.622 152.445 56.555 152.629 55.08 L 152.63 55.078 L 156.27 26.638 L 156.271 26.629 C 156.392 25.772 156.011 24.844 155.291 24.094 C 154.57 23.342 153.605 22.874 152.738 22.858 L 152.729 22.858 L 152.721 22.857 L 151.761 22.817 L 151.75 22.816 L 151.74 22.816 L 151.187 22.776 L 149.517 22.697 L 149.371 22.675 C 149.043 22.591 148.809 22.287 148.825 21.936 C 148.844 21.535 149.185 21.225 149.586 21.244 L 151.266 21.324 Z" fill="currentColor" fill-rule="nonzero"></path>
  <path d="M 97.145 36.37 C 97.145 31.547 93.127 27.578 88.113 27.577 C 83.096 27.577 79.08 31.509 79.08 36.37 C 79.08 41.192 83.098 45.163 88.113 45.163 C 93.127 45.163 97.145 41.192 97.145 36.37 Z M 98.6 36.37 C 98.6 42.027 93.898 46.617 88.113 46.617 C 82.327 46.617 77.625 42.027 77.625 36.37 C 77.625 30.67 82.329 26.122 88.113 26.122 C 93.898 26.122 98.6 30.713 98.6 36.37 Z" fill="currentColor" fill-rule="nonzero"></path>
  <path d="M 147.746 31.081 C 148.348 31.1 148.821 31.603 148.802 32.205 C 148.783 32.808 148.279 33.281 147.677 33.262 L 105.957 31.942 L 105.846 31.933 C 105.298 31.86 104.884 31.382 104.901 30.817 C 104.92 30.215 105.424 29.742 106.026 29.761 L 147.746 31.081 Z" fill="currentColor" fill-rule="nonzero"></path>
  <path d="M 146.986 37.799 L 147.097 37.808 C 147.645 37.881 148.06 38.359 148.042 38.924 C 148.024 39.488 147.58 39.939 147.029 39.978 L 146.917 39.98 L 105.157 38.66 L 105.046 38.651 C 104.498 38.578 104.083 38.1 104.101 37.535 C 104.12 36.933 104.624 36.46 105.226 36.479 L 146.986 37.799 Z" fill="currentColor" fill-rule="nonzero"></path>
  <path d="M 131.187 43.92 L 131.298 43.93 C 131.846 44.003 132.261 44.481 132.243 45.045 C 132.224 45.647 131.721 46.12 131.118 46.101 L 104.359 45.261 L 104.247 45.252 C 103.699 45.179 103.285 44.701 103.303 44.137 C 103.322 43.535 103.825 43.062 104.427 43.081 L 131.187 43.92 Z" fill="currentColor" fill-rule="nonzero"></path>
  <path d="M 124.751 130.889 C 130.511 135.089 134.311 141.889 134.311 149.569 C 134.311 162.369 123.911 172.769 111.031 172.769 C 105.631 172.769 100.711 170.929 96.751 167.889 L 96.791 167.809 C 100.351 170.049 104.591 171.329 109.111 171.329 C 121.951 171.329 132.391 160.929 132.391 148.129 C 132.391 141.289 129.431 135.169 124.711 130.929 L 124.751 130.889 Z" fill="currentColor" fill-rule="nonzero"></path>
  <path d="M 131.664 148.131 C 131.664 141.546 128.797 135.579 124.225 131.472 L 124.224 131.471 C 120.231 127.866 114.963 125.659 109.111 125.659 C 96.631 125.659 86.558 135.735 86.558 148.131 C 86.558 155.936 90.556 162.798 96.586 166.813 L 97.175 167.193 L 97.178 167.195 C 100.623 169.363 104.729 170.603 109.111 170.603 C 121.591 170.603 131.663 160.528 131.664 148.131 Z M 133.118 148.131 C 133.118 161.334 122.391 172.058 109.111 172.058 C 104.454 172.058 100.081 170.739 96.407 168.428 L 95.779 168.024 C 89.364 163.751 85.103 156.446 85.103 148.131 C 85.103 134.928 95.831 124.203 109.111 124.203 C 115.338 124.203 120.949 126.556 125.197 130.39 L 125.647 130.806 C 130.252 135.16 133.118 141.336 133.118 148.131 Z" fill="currentColor" fill-rule="nonzero"></path>
  <path d="M 133.583 149.573 C 133.583 142.139 129.906 135.551 124.322 131.48 C 123.998 131.243 123.927 130.789 124.163 130.464 C 124.4 130.14 124.855 130.069 125.179 130.306 C 131.116 134.634 135.039 141.647 135.039 149.573 C 135.039 162.776 124.311 173.5 111.031 173.5 C 105.635 173.5 100.705 171.718 96.693 168.759 L 96.308 168.47 L 96.201 168.369 C 95.979 168.114 95.96 167.729 96.174 167.45 C 96.388 167.172 96.764 167.09 97.068 167.238 L 97.193 167.316 L 97.556 167.589 C 101.332 170.374 105.964 172.046 111.031 172.046 C 123.511 172.046 133.583 161.97 133.583 149.573 Z" fill="currentColor" fill-rule="nonzero"></path>
  <path d="M 123.672 138.69 C 124.352 138.69 124.872 139.37 124.752 140.13 L 123.112 155.37 C 123.032 155.97 122.512 156.45 121.952 156.41 L 96.992 155.85 C 96.312 155.85 95.792 155.17 95.872 154.45 L 95.952 153.97 L 95.992 153.97 C 96.072 154.53 96.512 154.97 97.072 154.97 L 121.392 155.49 C 121.952 155.49 122.432 155.09 122.512 154.49 L 124.112 139.93 C 124.192 139.29 123.832 138.73 123.272 138.57 L 123.672 138.69 Z" fill="currentColor" fill-rule="nonzero"></path>
  <path d="M 123.307 137.964 L 123.344 137.968 L 123.744 138.007 L 123.743 138.009 C 124.856 138.091 125.631 139.119 125.473 140.248 L 125.475 140.249 L 123.835 155.49 L 123.833 155.508 C 123.705 156.465 122.879 157.178 121.951 157.178 L 121.935 157.178 L 113.255 156.978 L 113.255 156.977 L 96.975 156.618 L 96.962 156.618 L 96.949 156.617 C 95.82 156.551 95.027 155.512 95.149 154.411 L 95.151 154.391 L 95.154 154.372 L 95.234 153.892 L 95.273 153.749 C 95.395 153.434 95.725 153.236 96.071 153.294 C 96.467 153.36 96.735 153.735 96.669 154.131 L 96.593 154.581 C 96.561 154.914 96.803 155.149 97.031 155.164 L 113.287 155.524 L 113.288 155.524 L 121.953 155.723 C 122.144 155.722 122.358 155.557 122.391 155.315 L 124.028 140.093 L 124.03 140.076 L 124.033 140.058 C 124.091 139.691 123.848 139.47 123.629 139.457 L 123.613 139.456 L 123.599 139.455 L 123.239 139.419 L 123.111 139.419 C 122.71 139.419 122.384 139.093 122.384 138.691 C 122.384 138.29 122.71 137.964 123.111 137.964 L 123.307 137.964 Z" fill="currentColor" fill-rule="nonzero"></path>
  <path d="M 99.121 137.244 L 99.131 137.245 L 123.051 137.885 L 123.05 137.887 C 123.121 137.888 123.182 137.895 123.225 137.903 C 123.263 137.91 123.299 137.919 123.319 137.924 L 123.348 137.924 L 123.424 137.94 C 124.417 138.154 124.944 139.153 124.833 140.051 L 124.834 140.052 L 123.234 154.611 L 123.232 154.628 C 123.104 155.589 122.315 156.259 121.391 156.259 L 121.376 156.259 L 97.055 155.739 L 97.055 155.738 C 96.087 155.73 95.394 154.971 95.272 154.114 L 95.264 154.064 L 95.264 153.642 L 95.271 153.594 L 97.271 138.914 C 97.362 137.935 98.208 137.244 99.111 137.244 L 99.121 137.244 Z M 99.111 138.698 C 98.91 138.699 98.73 138.866 98.717 139.06 L 98.715 139.085 L 98.712 139.11 L 96.719 153.734 L 96.719 153.943 C 96.766 154.178 96.935 154.285 97.072 154.285 L 97.087 154.285 L 121.394 154.803 C 121.589 154.802 121.758 154.673 121.79 154.436 L 123.389 139.892 L 123.389 139.884 L 123.391 139.876 C 123.429 139.591 123.255 139.407 123.135 139.368 C 123.114 139.366 123.094 139.364 123.078 139.36 C 123.036 139.353 122.998 139.343 122.979 139.338 L 99.111 138.698 Z" fill="currentColor" fill-rule="nonzero"></path>
  <path d="M 115.112 156.251 L 118.512 161.811 C 118.792 162.251 119.472 162.091 119.512 161.571 L 119.992 155.771 L 115.112 156.251 Z" fill="currentColor" fill-rule="nonzero"></path>
  <path d="M 104.312 148.529 C 105.505 148.529 106.472 147.562 106.472 146.369 C 106.472 145.176 105.505 144.209 104.312 144.209 C 103.119 144.209 102.152 145.176 102.152 146.369 C 102.152 147.562 103.119 148.529 104.312 148.529 Z" fill="currentColor" fill-rule="nonzero"></path>
  <path d="M 110.192 148.772 C 111.385 148.772 112.352 147.805 112.352 146.612 C 112.352 145.419 111.385 144.452 110.192 144.452 C 108.999 144.452 108.032 145.419 108.032 146.612 C 108.032 147.805 108.999 148.772 110.192 148.772 Z" fill="currentColor" fill-rule="nonzero"></path>
  <path d="M 116.591 149.01 C 117.784 149.01 118.751 148.043 118.751 146.85 C 118.751 145.657 117.784 144.69 116.591 144.69 C 115.398 144.69 114.431 145.657 114.431 146.85 C 114.431 148.043 115.398 149.01 116.591 149.01 Z" fill="currentColor" fill-rule="nonzero"></path>
  <path d="M 123.932 57.009 C 124.33 57.064 124.608 57.432 124.553 57.83 L 115.153 125.469 C 115.098 125.867 114.73 126.145 114.333 126.09 C 113.935 126.035 113.657 125.667 113.712 125.269 L 123.113 57.63 C 123.168 57.232 123.535 56.954 123.932 57.009 Z" fill="currentColor" fill-rule="nonzero"></path>
  <path d="M 36.031 120.773 C 36.427 120.837 36.696 121.211 36.632 121.608 L 30.072 161.927 L 30.072 161.928 C 29.296 166.696 32.697 171.019 37.217 171.164 L 37.216 171.164 L 100.414 172.962 C 102.199 172.998 103.826 172.417 105.129 171.331 L 105.251 171.249 C 105.549 171.09 105.927 171.155 106.152 171.424 C 106.409 171.733 106.368 172.192 106.059 172.449 L 105.759 172.688 C 104.236 173.846 102.379 174.458 100.379 174.418 L 100.374 174.418 L 37.174 172.617 L 37.17 172.617 C 31.69 172.441 27.732 167.244 28.636 161.693 L 35.196 121.373 L 35.234 121.232 C 35.354 120.915 35.684 120.716 36.031 120.773 Z" fill="currentColor" fill-rule="nonzero"></path>
  <path d="M 44.751 71.525 C 44.686 71.922 44.313 72.191 43.916 72.127 C 43.52 72.062 43.252 71.688 43.316 71.292 L 44.751 71.525 Z M 61.695 5.881 L 61.694 5.882 L 121.491 7.361 L 121.994 7.388 C 127.128 7.81 130.814 12.726 130.074 18.052 L 130.075 18.053 L 129.676 21.454 L 128.954 21.368 L 128.231 21.283 L 128.631 17.883 L 128.633 17.867 C 129.299 13.132 125.897 8.924 121.456 8.815 L 61.655 7.336 L 61.652 7.336 C 58.01 7.227 54.779 10.011 54.152 13.884 L 54.152 13.885 L 44.751 71.525 L 44.034 71.408 L 43.316 71.292 L 52.716 13.651 C 53.449 9.125 57.257 5.75 61.695 5.881 Z M 129.676 21.454 C 129.629 21.852 129.267 22.137 128.869 22.09 C 128.47 22.044 128.184 21.682 128.231 21.283 L 129.676 21.454 Z" fill="currentColor" fill-rule="nonzero"></path>
  <path d="M 127.193 2.009 C 136.753 2.089 138.913 9.289 138.393 12.929 L 137.233 21.689 L 134.193 21.569 L 135.433 12.409 C 136.193 7.249 132.393 2.529 127.193 2.009 Z" fill="currentColor" fill-rule="nonzero"></path>
  <path d="M 39.43 71.368 C 39.363 71.765 38.988 72.032 38.592 71.966 C 38.196 71.899 37.929 71.525 37.995 71.129 L 39.43 71.368 Z M 58.565 0.002 L 126.446 1.242 C 126.613 1.242 126.764 1.254 126.885 1.264 L 127.264 1.285 C 127.383 1.297 127.5 1.314 127.617 1.329 C 132.362 1.472 135.391 3.355 137.158 5.758 C 138.95 8.194 139.397 11.099 139.112 13.073 L 137.954 21.825 C 137.904 22.197 137.579 22.47 137.204 22.455 L 134.164 22.335 C 133.959 22.327 133.767 22.233 133.635 22.076 C 133.504 21.919 133.444 21.714 133.471 21.511 L 134.711 12.312 L 134.711 12.309 C 135.355 7.658 132.106 3.454 127.518 2.783 C 127.409 2.78 127.298 2.777 127.187 2.776 C 127.097 2.775 127.013 2.755 126.934 2.725 C 126.875 2.721 126.819 2.718 126.769 2.714 C 126.643 2.704 126.54 2.696 126.433 2.696 L 126.418 2.696 L 58.539 1.456 C 54.295 1.382 50.648 4.408 49.949 8.53 L 39.43 71.368 L 38.712 71.248 L 37.995 71.129 L 48.515 8.288 L 48.515 8.286 C 49.336 3.449 53.61 -0.084 58.565 0.002 Z M 133.588 4.41 C 135.541 6.503 136.58 9.419 136.153 12.509 L 135.019 20.913 L 136.598 20.976 L 137.672 12.874 L 137.673 12.865 C 137.907 11.238 137.534 8.724 135.986 6.62 C 135.385 5.804 134.6 5.039 133.588 4.41 Z" fill="currentColor" fill-rule="nonzero"></path>
  <path d="M 132.152 57.89 L 122.312 128.85 L 119.152 127.09 L 129.072 57.41 L 132.152 57.89 Z" fill="currentColor" fill-rule="nonzero"></path>
  <path d="M 129.184 56.691 L 132.263 57.171 C 132.655 57.233 132.926 57.597 132.872 57.99 L 123.032 128.95 C 122.999 129.187 122.851 129.393 122.636 129.5 C 122.421 129.607 122.168 129.602 121.958 129.485 L 118.798 127.726 C 118.535 127.579 118.39 127.285 118.432 126.987 L 128.351 57.308 C 128.378 57.115 128.483 56.942 128.639 56.826 C 128.795 56.71 128.992 56.661 129.184 56.691 Z M 119.941 126.697 L 121.737 127.698 L 131.332 58.498 L 129.687 58.242 L 119.941 126.697 Z" fill="currentColor" fill-rule="nonzero"></path>
  <path d="M 116.313 171.33 L 115.913 174.25 C 115.273 178.93 111.233 182.33 106.513 182.25 L 34.753 180.69 C 30.993 180.61 26.273 177.09 24.673 173.93 C 26.313 176.33 28.833 178.05 31.753 178.09 L 103.513 179.65 C 108.193 179.77 112.233 176.37 112.913 171.77 L 116.313 171.33 Z" fill="currentColor" fill-rule="nonzero"></path>
  <path d="M 30.432 120.814 C 30.828 120.88 31.096 121.255 31.03 121.652 L 23.549 166.328 C 23.143 168.801 23.844 171.456 25.274 173.563 L 25.273 173.563 C 26.768 175.75 28.994 177.271 31.517 177.396 L 31.762 177.404 L 31.768 177.405 L 103.528 178.964 L 103.53 178.964 C 107.844 179.075 111.566 175.94 112.192 171.705 C 112.24 171.38 112.5 171.128 112.826 171.089 L 116.186 170.689 C 116.41 170.663 116.633 170.741 116.791 170.901 C 116.948 171.062 117.023 171.287 116.993 171.51 L 116.592 174.43 C 115.901 179.482 111.541 183.145 106.46 183.059 L 106.456 183.058 L 34.696 181.499 L 34.696 181.498 C 32.619 181.453 30.36 180.472 28.448 179.144 C 26.65 177.895 25.063 176.275 24.155 174.662 L 23.984 174.339 L 23.93 174.202 C 23.925 174.184 23.924 174.166 23.921 174.148 C 22.412 171.812 21.655 168.889 22.114 166.094 L 22.115 166.091 L 29.595 121.411 C 29.661 121.015 30.036 120.747 30.432 120.814 Z M 113.532 172.469 C 112.569 177.151 108.351 180.543 103.494 180.418 L 103.494 180.417 L 31.736 178.859 L 31.736 178.858 C 31.345 178.852 30.961 178.819 30.585 178.761 C 31.994 179.536 33.448 180.017 34.728 180.044 L 106.483 181.604 L 106.484 181.604 C 110.843 181.678 114.562 178.54 115.151 174.232 L 115.423 172.244 L 113.532 172.469 Z" fill="currentColor" fill-rule="nonzero"></path>
  <path d="M 95.965 3.682 C 96.367 3.688 96.687 4.019 96.681 4.42 C 96.675 4.772 96.421 5.062 96.088 5.124 L 95.942 5.136 L 85.902 4.976 L 85.756 4.959 C 85.426 4.886 85.181 4.589 85.186 4.238 C 85.192 3.836 85.523 3.515 85.925 3.521 L 95.965 3.682 Z" fill="currentColor" fill-rule="nonzero"></path>
  <path d="M 101.65 3.844 C 102.051 3.853 102.369 4.185 102.36 4.586 C 102.351 4.988 102.019 5.307 101.617 5.298 L 97.977 5.217 L 97.832 5.2 C 97.502 5.125 97.259 4.826 97.267 4.474 C 97.276 4.073 97.608 3.755 98.01 3.764 L 101.65 3.844 Z" fill="currentColor" fill-rule="nonzero"></path>
  <path d="M 91.306 33.907 C 91.583 33.616 92.044 33.605 92.335 33.882 C 92.625 34.16 92.636 34.62 92.359 34.911 L 87.016 40.517 L 83.294 37.493 C 82.982 37.24 82.935 36.782 83.188 36.471 C 83.441 36.159 83.9 36.111 84.211 36.364 L 86.889 38.54 L 91.306 33.907 Z" fill="currentColor" fill-rule="nonzero"></path>
</svg>