<svg xmlns="http://www.w3.org/2000/svg" width="176.025" height="163.612" viewBox="0 0 176.025 163.612" fill="none">
  <path d="M 10.559 100.291 C 10.559 99.507 10.601 98.725 10.641 97.969 L 11.453 98.012 L 12.264 98.055 C 12.224 98.818 12.187 99.557 12.187 100.291 C 12.187 112.273 20.707 123.285 34.822 131.346 C 48.913 139.394 68.428 144.399 90.013 144.399 C 111.597 144.399 131.103 139.394 145.184 131.351 C 159.289 123.294 167.8 112.293 167.8 100.331 C 167.8 92.597 164.245 85.272 157.955 78.904 L 158.534 78.332 L 159.111 77.76 C 165.621 84.351 169.425 92.066 169.426 100.331 C 169.426 113.13 160.336 124.57 145.991 132.763 C 131.622 140.97 111.828 146.025 90.013 146.025 C 68.197 146.025 48.394 140.969 34.015 132.757 C 19.66 124.559 10.559 113.11 10.559 100.291 Z" fill="currentColor" fill-rule="nonzero"></path>
  <path d="M 168.812 102.572 C 169.852 105.492 168.812 123.132 168.012 127.972 C 167.452 131.412 162.372 138.052 158.452 141.732 C 146.572 152.892 129.812 163.612 88.852 163.612 C 45.372 163.612 30.732 148.812 23.932 143.732 C 16.812 138.412 11.892 130.852 11.612 126.052 C 11.292 121.052 10.332 104.212 10.652 102.572 C 10.652 102.572 17.892 122.252 27.932 128.252 C 37.972 134.252 60.052 146.292 89.972 145.132 C 119.892 143.972 131.612 140.052 148.812 130.252 C 165.372 120.852 168.812 102.572 168.812 102.572 Z" fill="currentColor" fill-rule="nonzero"></path>
  <path d="M 148.186 99.733 C 148.186 109.071 141.567 117.36 131.212 123.269 C 120.833 129.191 106.548 132.826 90.813 132.826 C 78.117 132.826 66.378 130.458 56.872 126.437 C 47.38 122.42 40.044 116.722 36.265 110.011 L 36.973 109.613 L 37.682 109.213 C 41.223 115.502 48.208 121.006 57.505 124.939 C 66.789 128.867 78.31 131.2 90.813 131.2 C 106.318 131.2 120.314 127.614 130.405 121.856 C 140.52 116.085 146.56 108.234 146.56 99.733 L 148.186 99.733 Z" fill="currentColor" fill-rule="nonzero"></path>
  <path d="M 0 72.052 C 0 61.426 6.06 49.04 17.611 43.285 L 17.973 44.012 L 18.336 44.74 C 7.408 50.184 1.627 61.958 1.627 72.052 C 1.627 84.014 10.128 95.005 24.227 103.052 C 38.303 111.084 57.808 116.08 79.413 116.08 C 101.031 116.08 120.452 111.539 134.478 103.962 C 148.521 96.375 157.006 85.841 157.161 73.882 L 158.787 73.903 C 158.621 86.704 149.546 97.67 135.25 105.393 C 120.936 113.126 101.235 117.706 79.413 117.706 C 57.578 117.706 37.784 112.661 23.42 104.464 C 9.08 96.28 0 84.85 0 72.052 Z" fill="currentColor" fill-rule="nonzero"></path>
  <path d="M 158.612 74.808 C 159.652 77.728 158.292 94.888 157.452 99.728 C 156.892 103.168 151.812 109.808 147.892 113.488 C 136.012 124.648 119.252 135.368 78.292 135.368 C 34.812 135.368 20.172 120.568 13.372 115.488 C 6.252 110.168 1.332 102.608 1.052 97.808 C 0.732 92.808 -0.308 77.528 0.492 72.888 C 0.492 72.888 7.372 94.008 17.412 100.008 C 27.452 106.008 49.532 118.048 79.452 116.888 C 109.372 115.728 121.412 112.288 138.292 102.008 C 155.172 91.688 158.612 74.808 158.612 74.808 Z" fill="currentColor" fill-rule="nonzero"></path>
  <path d="M 174.398 45.694 C 174.398 33.712 165.887 22.711 151.784 14.66 C 137.702 6.622 118.195 1.627 96.61 1.627 C 75.006 1.627 55.5 6.632 41.424 14.674 C 27.325 22.73 18.825 33.732 18.825 45.694 C 18.825 57.655 27.335 68.657 41.44 76.713 C 55.521 84.756 75.026 89.76 96.61 89.76 C 118.195 89.76 137.702 84.765 151.784 76.727 C 165.888 68.676 174.397 57.675 174.398 45.694 Z M 176.025 45.694 C 176.025 58.512 166.934 69.951 152.589 78.14 C 138.22 86.342 118.425 91.386 96.61 91.386 C 74.795 91.386 55.002 86.331 40.633 78.124 C 26.288 69.931 17.198 58.492 17.197 45.694 C 17.197 32.896 26.277 21.457 40.618 13.263 C 54.982 5.056 74.775 0 96.61 0 C 118.426 0 138.22 5.046 152.589 13.248 C 166.935 21.437 176.025 32.876 176.025 45.694 Z" fill="currentColor" fill-rule="nonzero"></path>
  <path d="M 175.449 48.334 C 176.489 51.254 175.409 68.534 174.609 73.374 C 174.049 76.814 168.969 83.454 165.049 87.134 C 153.169 98.294 136.409 109.014 95.449 109.014 C 51.969 109.014 37.329 94.214 30.529 89.134 C 23.409 83.814 18.489 76.254 18.209 71.454 C 17.889 66.454 17.209 49.214 17.529 47.534 C 17.529 47.534 22.449 65.894 34.449 73.414 C 44.449 79.654 66.689 91.454 96.569 90.534 C 126.489 89.654 138.529 85.934 155.409 75.654 C 172.289 65.374 175.449 48.334 175.449 48.334 Z" fill="currentColor" fill-rule="nonzero"></path>
  <path d="M 153.198 45.134 C 153.198 36.638 147.157 28.788 137.042 23.015 C 126.95 17.255 112.955 13.667 97.451 13.667 C 81.948 13.667 67.952 17.255 57.86 23.015 C 47.746 28.788 41.705 36.638 41.705 45.134 C 41.705 53.629 47.745 61.481 57.86 67.254 C 67.952 73.013 81.948 76.601 97.451 76.601 C 112.954 76.601 126.95 73.013 137.042 67.254 C 147.157 61.481 153.198 53.629 153.198 45.134 Z M 154.824 45.134 C 154.824 54.466 148.204 62.755 137.849 68.665 C 127.469 74.588 113.185 78.227 97.451 78.227 C 81.718 78.227 67.434 74.588 57.055 68.665 C 46.699 62.755 40.078 54.466 40.078 45.134 C 40.078 35.802 46.699 27.513 57.055 21.602 C 67.434 15.679 81.718 12.04 97.451 12.04 C 113.185 12.04 127.469 15.679 137.849 21.602 C 148.204 27.513 154.824 35.802 154.824 45.134 Z" fill="currentColor" fill-rule="nonzero"></path>
</svg>