<svg xmlns="http://www.w3.org/2000/svg" width="96.658" height="29.149" viewBox="0 0 96.658 29.149" fill="none">
  <path d="M 7.955 0 C 7.991 1.21 8.009 2.972 8.009 4.502 C 7.615 4.52 7.185 4.52 6.773 4.52 C 6.343 4.52 5.913 4.52 5.519 4.502 C 5.519 2.972 5.536 1.21 5.572 0 L 0 0 C 0.054 1.886 0.054 3.844 0.054 6.673 C 0.054 9.503 0.054 11.425 0 13.346 L 5.572 13.346 C 5.536 12.119 5.519 10.392 5.519 8.898 C 5.913 8.88 6.343 8.88 6.773 8.88 C 7.185 8.88 7.615 8.88 8.009 8.898 C 8.009 10.392 7.991 12.119 7.955 13.346 L 13.545 13.346 C 13.492 11.407 13.474 9.503 13.474 6.673 C 13.474 3.844 13.492 1.886 13.545 0 L 7.955 0 Z" fill="currentColor" fill-rule="nonzero"></path>
  <path d="M 20.924 4.484 C 21.695 4.484 21.963 4.911 21.963 6.211 C 21.963 6.371 21.963 6.513 21.945 6.673 C 21.014 6.691 20.315 6.673 19.742 6.655 C 19.849 4.858 20.207 4.484 20.924 4.484 Z M 23.988 9.289 C 23.11 9.289 22.322 9.271 21.874 9.236 C 21.874 10.214 21.659 10.642 20.906 10.642 C 20.082 10.642 19.76 10.108 19.706 8.417 C 20.315 8.399 21.157 8.399 22.089 8.399 C 23.54 8.399 25.224 8.399 26.514 8.435 C 26.568 7.972 26.622 7.189 26.622 6.193 C 26.622 3.096 25.511 1.691 20.924 1.691 C 16.588 1.691 14.617 3.007 14.617 7.652 C 14.617 12.012 16.409 13.578 20.709 13.578 C 25.905 13.578 26.694 12.083 26.55 9.236 C 25.798 9.271 24.902 9.289 23.988 9.289 Z" fill="currentColor" fill-rule="nonzero"></path>
  <path d="M 33.124 10.517 C 32.407 10.517 32.138 10.268 32.138 9.503 C 32.138 8.826 32.497 8.595 33.411 8.595 C 33.697 8.595 33.984 8.613 34.271 8.631 C 34.271 10.001 33.876 10.517 33.124 10.517 Z M 34.289 7.207 C 33.805 7.136 33.231 7.118 32.551 7.118 C 28.985 7.118 27.444 8.026 27.444 10.428 C 27.444 12.777 28.609 13.489 30.83 13.489 C 32.658 13.489 33.876 12.848 34.306 11.46 L 34.396 11.46 C 34.378 11.745 34.36 12.03 34.36 12.243 C 34.36 13.275 34.521 13.346 35.435 13.346 L 39.502 13.346 C 39.323 12.848 39.252 11.3 39.252 10.09 C 39.252 8.631 39.287 7.545 39.287 5.872 C 39.287 3.043 37.603 1.708 33.554 1.708 C 29.2 1.708 27.659 3.114 27.767 6.655 C 28.304 6.602 29.254 6.584 30.203 6.584 C 30.974 6.584 31.744 6.584 32.228 6.638 C 32.103 5.552 32.551 5.196 33.285 5.196 C 34.02 5.196 34.289 5.534 34.289 6.299 L 34.289 7.207 Z" fill="currentColor" fill-rule="nonzero"></path>
  <path d="M 44.836 4.378 C 44.854 3.523 44.908 2.758 44.944 1.922 L 40.68 1.922 C 40.733 3.523 40.715 5.161 40.715 7.563 C 40.715 10.036 40.715 11.745 40.68 13.346 L 46.342 13.346 C 46.252 12.119 46.234 10.766 46.234 9.52 C 46.234 8.132 46.61 7.634 47.649 7.616 C 48.008 7.616 48.348 7.688 48.671 7.794 C 48.689 5.641 48.76 3.808 48.904 1.904 C 48.599 1.851 48.277 1.815 47.9 1.815 C 46.557 1.797 45.481 2.491 44.98 4.395 L 44.836 4.378 Z" fill="currentColor" fill-rule="nonzero"></path>
  <path d="M 55.226 6.175 C 56.802 6.193 58.182 6.228 58.809 6.246 C 58.791 4.787 58.863 3.328 58.899 1.922 C 57.877 1.957 56.623 1.957 55.315 1.975 C 55.333 1.281 55.369 0.641 55.387 0.036 C 54.581 0.071 53.685 0.089 52.807 0.089 C 51.929 0.089 51.087 0.071 50.28 0.036 C 50.28 0.623 50.28 1.263 50.262 1.94 L 49.277 1.922 C 49.313 3.114 49.295 4.734 49.277 6.086 L 50.191 6.104 C 50.155 7.225 50.137 8.293 50.137 9.111 C 50.137 11.852 51.284 13.507 55.369 13.507 C 56.838 13.507 58.003 13.364 59.149 13.079 C 58.97 11.674 58.791 9.609 58.737 8.31 C 58.146 8.488 57.376 8.577 56.444 8.577 C 55.548 8.577 55.226 8.364 55.226 7.741 L 55.226 6.175 Z" fill="currentColor" fill-rule="nonzero"></path>
  <path d="M 67.143 1.922 C 67.107 2.598 66.856 4.413 66.605 6.104 C 66.444 7.154 66.283 8.132 66.139 8.951 L 66.05 8.951 C 65.924 8.132 65.799 7.154 65.62 6.122 C 65.351 4.413 65.136 2.616 65.082 1.922 L 59.456 1.922 C 60.101 4.306 61.338 9.912 61.624 11.14 C 62.162 11.104 63.792 11.122 65.53 11.122 L 65.512 11.175 C 65.297 11.869 64.885 12.119 63.774 12.119 C 62.61 12.119 60.979 11.941 59.994 11.567 C 59.958 12.225 59.653 14.699 59.546 15.357 C 60.818 15.695 62.198 15.927 64.258 15.927 C 68.003 15.927 69.508 14.521 70.314 11.033 C 70.78 9.058 71.837 3.612 72.285 1.922 L 67.143 1.922 Z" fill="currentColor" fill-rule="nonzero"></path>
  <path d="M 7.991 15.571 C 7.722 16.425 7.346 17.688 6.647 19.486 C 6.361 20.091 6.038 20.785 5.698 21.479 L 5.572 21.479 C 5.572 19.361 5.59 17.261 5.644 15.571 L 0 15.571 C 0.054 17.475 0.072 19.415 0.072 22.244 C 0.072 25.091 0.054 26.978 0 28.917 L 5.644 28.917 C 5.608 27.458 5.59 25.803 5.572 23.97 L 5.751 23.97 C 6.468 25.038 7.149 26.978 7.615 28.277 C 7.74 28.757 7.991 28.917 8.6 28.917 L 13.886 28.917 C 13.617 28.312 13.187 27.013 12.309 24.878 C 11.915 23.703 11.324 22.796 9.801 22.458 C 11.807 21.55 12.865 17.724 13.85 15.571 L 7.991 15.571 Z" fill="currentColor" fill-rule="nonzero"></path>
  <path d="M 20.305 15.82 C 20.305 15.179 19.911 14.788 17.331 14.788 C 14.733 14.788 14.321 15.179 14.321 15.82 C 14.321 16.372 14.662 16.905 17.331 16.905 C 19.965 16.905 20.305 16.372 20.305 15.82 Z M 19.983 28.917 C 19.929 27.298 19.929 25.785 19.929 23.383 C 19.929 20.945 19.929 19.237 19.983 17.493 L 14.644 17.493 C 14.679 19.201 14.697 20.963 14.697 22.991 C 14.697 25.145 14.715 27.227 14.644 28.917 L 19.983 28.917 Z" fill="currentColor" fill-rule="nonzero"></path>
  <path d="M 26.845 21.746 C 28.422 21.764 29.801 21.799 30.428 21.817 C 30.41 20.358 30.482 18.898 30.518 17.493 C 29.497 17.528 28.242 17.528 26.934 17.546 C 26.952 16.852 26.988 16.211 27.006 15.606 C 26.2 15.642 25.304 15.66 24.426 15.66 C 23.548 15.66 22.706 15.642 21.9 15.606 C 21.9 16.194 21.9 16.834 21.882 17.51 L 20.896 17.493 C 20.932 18.685 20.914 20.304 20.896 21.657 L 21.81 21.675 C 21.774 22.796 21.756 23.863 21.756 24.682 C 21.756 27.422 22.903 29.077 26.988 29.077 C 28.457 29.077 29.622 28.935 30.769 28.65 C 30.59 27.244 30.41 25.18 30.357 23.881 C 29.765 24.059 28.995 24.148 28.063 24.148 C 27.167 24.148 26.845 23.935 26.845 23.312 L 26.845 21.746 Z" fill="currentColor" fill-rule="nonzero"></path>
  <path d="M 38.744 24.148 C 38.744 24.967 38.475 25.554 37.723 25.554 C 36.827 25.554 36.54 25.002 36.54 23.009 C 36.54 20.892 36.881 20.464 37.705 20.464 C 38.475 20.464 38.708 20.856 38.726 21.941 C 38.726 22.066 38.708 22.226 38.708 22.404 C 39.21 22.369 40.07 22.351 40.984 22.351 C 41.987 22.351 42.829 22.369 43.492 22.404 C 43.546 22.013 43.546 21.675 43.546 21.354 C 43.546 18.151 41.88 17.261 37.526 17.261 C 33.172 17.261 31.38 18.56 31.38 22.974 C 31.38 27.6 32.957 29.149 37.526 29.149 C 41.916 29.149 43.582 27.974 43.582 24.504 C 43.582 24.219 43.564 23.935 43.528 23.614 C 42.686 23.632 41.862 23.668 40.966 23.668 C 40.106 23.668 39.389 23.65 38.744 23.614 L 38.744 24.148 Z" fill="currentColor" fill-rule="nonzero"></path>
  <path d="M 57.247 28.917 C 57.194 27.76 57.194 26.639 57.194 25.251 C 57.194 23.81 57.229 22.689 57.229 20.571 C 57.229 18.24 55.868 17.297 53.718 17.297 C 51.872 17.297 50.672 17.955 50.027 19.432 L 49.901 19.379 C 49.919 18.756 49.937 18.204 49.937 17.564 C 49.937 16.71 49.955 16.051 49.991 15.144 L 44.634 15.144 C 44.669 17.19 44.687 19.735 44.687 22.76 C 44.687 25.465 44.669 27.138 44.634 28.917 L 49.973 28.917 C 49.937 27.778 49.937 26.693 49.937 23.276 C 49.937 21.924 50.421 21.479 51.084 21.479 C 51.711 21.479 51.962 21.799 51.962 22.6 C 51.962 25.287 51.962 27.333 51.908 28.917 L 57.247 28.917 Z" fill="currentColor" fill-rule="nonzero"></path>
  <path d="M 64.51 20.055 C 65.281 20.055 65.549 20.482 65.549 21.781 C 65.549 21.941 65.549 22.084 65.531 22.244 C 64.6 22.262 63.901 22.244 63.328 22.226 C 63.435 20.429 63.793 20.055 64.51 20.055 Z M 67.574 24.86 C 66.696 24.86 65.908 24.842 65.46 24.806 C 65.46 25.785 65.245 26.212 64.492 26.212 C 63.668 26.212 63.345 25.678 63.292 23.988 C 63.901 23.97 64.743 23.97 65.675 23.97 C 67.126 23.97 68.81 23.97 70.1 24.006 C 70.154 23.543 70.208 22.76 70.208 21.764 C 70.208 18.667 69.097 17.261 64.51 17.261 C 60.174 17.261 58.203 18.578 58.203 23.223 C 58.203 27.583 59.995 29.149 64.295 29.149 C 69.491 29.149 70.279 27.654 70.136 24.806 C 69.384 24.842 68.488 24.86 67.574 24.86 Z" fill="currentColor" fill-rule="nonzero"></path>
  <path d="M 83.948 28.917 C 83.895 27.725 83.895 26.568 83.895 25.127 C 83.895 23.774 83.913 22.707 83.913 20.625 C 83.913 18.24 82.605 17.333 80.401 17.333 C 78.591 17.333 77.373 17.973 76.71 19.468 L 76.584 19.432 L 76.638 17.493 L 71.335 17.493 C 71.37 19.094 71.388 20.767 71.388 23.152 C 71.388 25.678 71.37 27.244 71.335 28.917 L 76.656 28.917 C 76.62 27.778 76.62 26.639 76.62 23.223 C 76.62 21.906 77.122 21.479 77.767 21.479 C 78.394 21.479 78.645 21.817 78.645 22.6 C 78.645 25.269 78.645 27.333 78.609 28.917 L 83.948 28.917 Z" fill="currentColor" fill-rule="nonzero"></path>
  <path d="M 89.222 25.091 C 88.846 25.109 88.326 25.127 87.753 25.127 C 86.517 25.127 85.71 25.056 85.047 25.002 C 85.012 25.305 84.994 25.589 84.994 25.839 C 84.994 28.17 86.123 29.149 90.817 29.149 C 95.099 29.149 96.658 28.134 96.658 25.554 C 96.658 23.187 95.655 22.386 92.394 21.835 C 90.458 21.532 90.136 21.23 90.136 20.66 C 90.136 20.233 90.405 20.02 91.139 20.02 C 91.946 20.02 92.179 20.322 92.179 20.927 L 92.179 21.176 C 92.519 21.141 93.074 21.141 93.684 21.141 C 94.651 21.141 95.762 21.176 96.443 21.247 C 96.461 20.981 96.479 20.731 96.479 20.482 C 96.479 18.204 95.296 17.279 90.763 17.279 C 86.642 17.279 84.94 18.151 84.94 20.785 C 84.94 22.991 85.728 24.006 89.097 24.468 C 90.889 24.718 91.372 24.984 91.372 25.625 C 91.372 26.123 91.104 26.337 90.369 26.337 C 89.509 26.337 89.222 25.999 89.222 25.358 L 89.222 25.091 Z" fill="currentColor" fill-rule="nonzero"></path>
</svg>