<svg xmlns="http://www.w3.org/2000/svg" width="42.554" height="32" viewBox="0 0 42.554 32" fill="none">
  <path d="M 4.479 7.532 L 38.074 7.532 C 38.074 5.689 36.57 4.195 34.715 4.195 L 7.839 4.195 C 5.983 4.195 4.479 5.689 4.479 7.532 Z" fill="currentColor" fill-rule="nonzero"></path>
  <path d="M 42.554 8.471 C 42.554 8.113 42.554 7.933 42.473 7.801 C 42.426 7.723 42.361 7.658 42.282 7.611 C 42.149 7.532 41.969 7.532 41.607 7.532 L 0.672 7.532 C 0.568 7.532 0.516 7.532 0.472 7.538 C 0.233 7.576 0.045 7.763 0.007 8.001 C 0 8.044 0 8.096 0 8.199 L 0 9.756 C 0 10.37 0.501 10.868 1.12 10.868 C 1.738 10.868 2.24 11.366 2.24 11.98 C 2.24 12.595 2.741 13.093 3.359 13.093 L 39.194 13.093 C 39.813 13.093 40.314 12.595 40.314 11.98 C 40.314 11.366 40.815 10.868 41.434 10.868 L 41.807 10.868 C 42.219 10.868 42.554 10.536 42.554 10.127 L 42.554 8.471 Z" fill="currentColor" fill-rule="nonzero"></path>
  <path d="M 38.074 7.532 L 4.479 7.532 L 4.479 22.602 C 4.479 26.19 4.479 27.984 5.282 29.307 C 5.753 30.084 6.408 30.735 7.191 31.203 C 8.523 32 10.329 32 13.942 32 L 28.612 32 C 32.224 32 34.03 32 35.363 31.203 C 36.146 30.735 36.801 30.084 37.272 29.307 C 38.074 27.984 38.074 26.19 38.074 22.602 L 38.074 7.532 Z M 21.277 24.215 C 24.776 22.767 26.876 20.597 26.876 18.426 C 26.876 15.229 22.677 14.084 21.277 16.979 C 19.877 14.084 15.678 15.229 15.678 18.426 C 15.678 20.597 17.777 22.767 21.277 24.215 Z" fill="currentColor" fill-rule="evenodd"></path>
  <path d="M 20.157 1.971 L 22.397 1.971 L 22.397 4.195 L 20.157 4.195 L 20.157 1.971 Z" fill="currentColor" fill-rule="nonzero"></path>
  <path d="M 21.209 0 C 24.735 0 25.273 0.5 25.273 1.319 C 25.273 2.025 24.808 2.707 21.209 2.707 C 17.561 2.707 17.096 2.025 17.096 1.319 C 17.096 0.5 17.659 0 21.209 0 Z" fill="currentColor" fill-rule="nonzero"></path>
</svg>