<svg xmlns="http://www.w3.org/2000/svg" width="79.206" height="18.225" viewBox="0 0 79.206 18.225" fill="none">
  <path d="M 6.986 0.349 L 0 0.349 L 0 18.065 L 2.911 18.065 L 2.911 11.636 L 6.986 11.636 C 10.683 11.636 13.114 9.411 13.114 5.993 C 13.114 2.575 10.683 0.349 6.986 0.349 Z M 6.739 9.105 L 2.911 9.105 L 2.911 2.88 L 6.753 2.88 C 8.835 2.88 10.145 4.073 10.145 5.993 C 10.145 7.913 8.806 9.105 6.724 9.105 L 6.739 9.105 Z M 24.321 7.011 C 23.491 5.818 22.123 4.96 20.085 4.96 C 16.563 4.96 13.958 7.593 13.958 11.593 C 13.958 15.593 16.563 18.225 20.085 18.225 C 22.108 18.225 23.476 17.265 24.321 16.102 L 24.626 18.08 L 27.028 18.08 L 27.028 5.105 L 24.655 5.105 L 24.321 6.996 L 24.321 7.011 Z M 20.551 15.913 C 18.266 15.913 16.781 14.138 16.781 11.578 C 16.781 9.018 18.281 7.273 20.551 7.273 C 22.822 7.273 24.321 9.062 24.321 11.622 C 24.321 14.182 22.822 15.898 20.551 15.898 L 20.551 15.913 Z M 47.826 7.011 C 46.997 5.818 45.629 4.96 43.591 4.96 C 40.069 4.96 37.463 7.593 37.463 11.593 C 37.463 15.593 40.069 18.225 43.591 18.225 C 45.614 18.225 46.982 17.265 47.826 16.102 L 48.132 18.08 L 50.533 18.08 L 50.533 5.105 L 48.161 5.105 L 47.826 6.996 L 47.826 7.011 Z M 44.057 15.913 C 41.772 15.913 40.287 14.138 40.287 11.578 C 40.287 9.018 41.786 7.273 44.057 7.273 C 46.327 7.273 47.826 9.062 47.826 11.622 C 47.826 14.182 46.327 15.898 44.057 15.898 L 44.057 15.913 Z M 36.27 5.105 L 36.881 5.105 L 36.881 7.665 L 35.673 7.665 C 33.243 7.665 32.457 9.556 32.457 11.564 L 32.457 18.065 L 29.72 18.065 L 29.72 5.105 L 32.151 5.105 L 32.457 7.055 C 33.112 5.964 34.16 5.105 36.284 5.105 L 36.27 5.105 Z M 64.811 1.644 C 64.811 2.604 64.084 3.287 63.138 3.287 C 62.192 3.287 61.464 2.604 61.464 1.644 C 61.464 0.684 62.192 0 63.138 0 C 64.084 0 64.811 0.684 64.811 1.644 Z M 79.206 10.851 L 79.206 18.065 L 76.441 18.065 L 76.441 11.084 C 76.441 8.625 75.407 7.316 73.355 7.316 C 71.172 7.316 69.891 8.916 69.891 11.535 L 69.891 18.065 L 67.155 18.065 L 67.155 5.105 L 69.542 5.105 L 69.847 6.807 C 70.662 5.789 71.899 4.96 73.995 4.96 C 76.863 4.96 79.206 6.531 79.206 10.851 Z M 56.981 5.105 L 64.506 5.105 L 64.506 18.065 L 61.74 18.065 L 61.74 7.52 L 56.981 7.52 L 56.981 18.065 L 54.216 18.065 L 54.216 7.52 L 51.96 7.52 L 51.96 5.12 L 54.216 5.12 L 54.216 3.825 C 54.216 1.542 55.336 0.364 57.84 0.364 L 60.139 0.364 L 60.139 2.764 L 58.218 2.764 C 57.33 2.764 56.981 3.142 56.981 4.029 L 56.981 5.12 L 56.981 5.105 Z" fill="currentColor" fill-rule="nonzero"></path>
</svg>