<svg xmlns="http://www.w3.org/2000/svg" width="32.020" height="32" viewBox="0 0 32.020 32" fill="none">
  <path d="M 16.604 10.27 L 17.628 0.08 C 17.09 0.026 16.55 0 16.01 0 C 15.49 0 14.975 0.025 14.467 0.074 L 14.958 5.084 C 15.311 4.957 15.673 4.844 16.041 4.753 L 16.035 10.241 C 16.227 10.24 16.417 10.251 16.604 10.27 Z" fill="currentColor" fill-rule="nonzero"></path>
  <path d="M 11.328 7.2 C 11.587 6.978 11.855 6.767 12.132 6.568 L 13.826 10.667 C 14.001 10.596 14.181 10.533 14.364 10.48 L 11.408 0.672 C 10.396 0.976 9.417 1.379 8.485 1.876 L 11.328 7.2 Z" fill="currentColor" fill-rule="nonzero"></path>
  <path d="M 19.55 4.419 C 19.965 4.442 20.378 4.487 20.787 4.555 L 18.238 10.686 C 18.414 10.76 18.585 10.842 18.752 10.932 L 23.6 1.909 C 22.67 1.408 21.693 1.001 20.683 0.693 L 19.55 4.419 Z" fill="currentColor" fill-rule="nonzero"></path>
  <path d="M 9.384 9.345 C 9.208 9.602 9.039 9.864 8.879 10.13 L 3.645 5.834 C 4.317 5.019 5.067 4.272 5.886 3.604 L 12.37 11.532 C 12.222 11.652 12.081 11.779 11.946 11.914 L 9.384 9.345 Z" fill="currentColor" fill-rule="nonzero"></path>
  <path d="M 20.099 11.941 L 25.554 6.501 C 25.189 6.244 24.808 6.008 24.415 5.796 L 26.184 3.643 C 26.998 4.315 27.745 5.065 28.412 5.883 L 20.479 12.363 C 20.359 12.216 20.232 12.075 20.099 11.941 Z" fill="currentColor" fill-rule="nonzero"></path>
  <path d="M 21.533 14.343 L 31.347 11.389 C 31.043 10.379 30.639 9.401 30.142 8.471 L 28.43 9.385 C 28.697 9.77 28.941 10.171 29.161 10.585 L 21.341 13.808 C 21.414 13.983 21.478 14.162 21.533 14.343 Z" fill="currentColor" fill-rule="nonzero"></path>
  <path d="M 25.53 25.52 C 25.901 25.259 26.258 24.977 26.597 24.675 L 28.383 26.151 C 27.713 26.966 26.965 27.713 26.149 28.382 L 19.665 20.454 C 19.812 20.334 19.952 20.206 20.086 20.072 L 25.53 25.52 Z" fill="currentColor" fill-rule="nonzero"></path>
  <path d="M 30.499 16.016 L 30.499 16 C 30.499 15.53 30.47 15.061 30.413 14.595 L 31.944 14.445 C 31.994 14.958 32.02 15.478 32.02 16.004 C 32.02 16.543 31.993 17.075 31.94 17.6 L 21.745 16.574 C 21.763 16.387 21.774 16.198 21.774 16.006 L 30.499 16.016 Z" fill="currentColor" fill-rule="nonzero"></path>
  <path d="M 9.372 22.64 L 11.939 20.08 C 11.805 19.946 11.677 19.805 11.555 19.658 L 3.623 26.138 C 4.293 26.956 5.042 27.706 5.859 28.378 L 9.949 23.401 C 9.747 23.153 9.555 22.899 9.372 22.64 Z" fill="currentColor" fill-rule="nonzero"></path>
  <path d="M 7.285 15.99 L 7.285 16 C 7.285 16.287 7.296 16.572 7.32 16.854 L 0.08 17.562 C 0.026 17.049 0 16.527 0 16 C 0 15.46 0.027 14.926 0.08 14.4 L 10.275 15.419 C 10.257 15.607 10.246 15.798 10.246 15.99 L 7.285 15.99 Z" fill="currentColor" fill-rule="nonzero"></path>
  <path d="M 8.085 20.24 C 7.978 19.965 7.881 19.685 7.792 19.4 L 10.686 18.206 C 10.613 18.031 10.549 17.851 10.493 17.668 L 0.68 20.622 C 0.984 21.634 1.389 22.613 1.889 23.545 L 8.085 20.24 Z" fill="currentColor" fill-rule="nonzero"></path>
  <path d="M 20.759 27.45 C 21.178 27.382 21.592 27.292 22.001 27.178 L 23.566 30.109 C 22.636 30.607 21.658 31.012 20.647 31.318 L 17.69 21.51 C 17.873 21.455 18.052 21.39 18.227 21.318 L 20.759 27.45 Z" fill="currentColor" fill-rule="nonzero"></path>
  <path d="M 29.729 20.16 C 29.56 20.6 29.364 21.03 29.142 21.446 L 21.336 18.204 C 21.264 18.379 21.184 18.55 21.096 18.717 L 30.125 23.562 C 30.624 22.633 31.03 21.657 31.336 20.647 L 29.729 20.16 Z" fill="currentColor" fill-rule="nonzero"></path>
  <path d="M 17.154 27.468 L 17.59 31.92 C 17.07 31.973 16.544 32 16.01 32 C 15.476 32 14.95 31.973 14.43 31.92 L 15.45 21.73 C 15.636 21.748 15.822 21.758 16.01 21.758 L 16.023 21.758 L 16.016 27.238 C 16.391 27.334 16.771 27.411 17.154 27.468 Z" fill="currentColor" fill-rule="nonzero"></path>
  <path d="M 12.111 25.417 C 12.396 25.621 12.69 25.812 12.991 25.99 L 11.372 31.317 C 10.36 31.011 9.381 30.606 8.45 30.106 L 13.295 21.086 C 13.462 21.172 13.634 21.254 13.811 21.326 L 12.111 25.417 Z" fill="currentColor" fill-rule="nonzero"></path>
  <path d="M 7.797 12.582 C 7.711 12.861 7.636 13.144 7.57 13.431 L 0.69 11.342 C 0.997 10.331 1.405 9.353 1.907 8.422 L 10.936 13.266 C 10.845 13.433 10.763 13.606 10.69 13.782 L 7.797 12.582 Z" fill="currentColor" fill-rule="nonzero"></path>
</svg>