<svg xmlns="http://www.w3.org/2000/svg" width="113.789" height="164.425" viewBox="0 0 113.789 164.425" fill="none">
  <path d="M 110.554 9.083 L 110.354 9.243 C 107.274 5.643 101.874 4.283 97.194 6.923 L 20.314 50.523 C 12.874 54.763 8.274 62.683 8.354 71.283 L 9.034 139.043 C 9.114 145.403 14.554 149.843 20.314 149.403 C 13.314 152.803 1.034 146.403 0.954 138.603 L 0.674 67.723 C 0.594 59.163 5.154 51.203 12.634 46.963 L 93.274 1.763 C 98.954 -1.477 107.554 3.003 110.554 9.083 Z" fill="currentColor" fill-rule="nonzero"></path>
  <path d="M 51.755 133.005 C 52.315 132.685 53.035 133.125 52.995 133.765 L 52.275 161.005 L 52.235 161.005 L 44.675 137.165 L 44.595 137.005 L 51.755 133.005 Z" fill="currentColor" fill-rule="nonzero"></path>
  <path d="M 92.944 1.176 C 96.035 -0.585 99.846 -0.222 103.197 1.3 C 106.555 2.826 109.58 5.57 111.158 8.787 L 110.554 9.083 L 109.949 9.38 C 108.526 6.477 105.751 3.941 102.64 2.527 C 99.522 1.11 96.195 0.873 93.607 2.349 L 93.603 2.351 L 12.963 47.551 L 12.962 47.55 C 5.961 51.542 1.551 58.888 1.353 66.936 L 1.347 67.718 L 1.347 67.721 L 1.627 138.596 L 1.638 138.928 C 1.841 142.352 4.622 145.58 8.359 147.612 C 12.211 149.706 16.789 150.366 20.019 148.798 C 20.114 148.744 20.202 148.704 20.248 148.685 C 20.327 148.651 20.34 148.643 20.34 148.643 L 21.087 149.764 C 20.966 149.844 20.836 149.897 20.778 149.922 C 20.699 149.956 20.686 149.964 20.686 149.964 L 20.648 149.989 L 20.608 150.009 C 16.837 151.841 11.775 151.001 7.716 148.795 C 3.664 146.592 0.324 142.864 0.28 138.61 L 0.28 138.607 L 0 67.726 L 0.001 67.725 C -0.08 58.881 4.651 50.738 12.3 46.379 L 12.304 46.376 L 92.944 1.176 Z" fill="currentColor" fill-rule="nonzero"></path>
  <path d="M 96.864 6.338 C 101.845 3.528 107.593 4.981 110.866 8.806 L 110.869 8.81 C 112.484 10.722 113.508 13.193 113.508 16.001 L 113.788 89.397 C 113.831 93.319 111.784 96.939 108.425 98.98 L 79.917 116.234 L 58.084 162.489 L 58.085 162.49 C 56.53 165.8 51.542 164.584 51.642 160.946 L 52.362 133.707 L 52.362 133.694 L 52.363 133.682 C 52.365 133.642 52.349 133.595 52.289 133.559 C 52.228 133.521 52.171 133.525 52.129 133.549 L 52.124 133.552 L 44.964 137.552 L 44.962 137.553 L 24.962 148.673 C 23.469 149.525 21.895 149.948 20.371 150.075 L 20.367 150.075 C 14.241 150.543 8.447 145.823 8.361 139.053 L 8.361 139.051 L 7.682 71.291 C 7.6 62.445 12.331 54.299 19.982 49.94 L 19.983 49.939 L 96.863 6.339 L 96.864 6.338 Z M 109.566 9.372 C 106.641 6.233 101.768 5.117 97.526 7.509 L 20.647 51.11 L 20.646 51.109 C 13.418 55.23 8.951 62.924 9.029 71.277 L 9.708 139.036 L 9.716 139.313 C 9.942 145.113 14.951 149.136 20.259 148.733 C 21.613 148.62 22.996 148.245 24.301 147.499 L 24.308 147.496 L 44.307 136.376 L 51.461 132.379 C 52.466 131.805 53.761 132.566 53.707 133.741 L 53.708 133.742 L 52.988 160.982 C 52.928 163.183 55.941 163.888 56.866 161.918 L 56.866 161.916 L 78.786 115.477 L 78.873 115.294 L 79.046 115.188 L 107.725 97.829 C 110.686 96.03 112.479 92.849 112.441 89.412 L 112.441 89.407 L 112.161 16.007 L 112.161 16.004 C 112.161 13.536 111.266 11.369 109.843 9.682 L 109.566 9.372 Z" fill="currentColor" fill-rule="nonzero"></path>
  <path d="M 44.51 136.522 C 44.82 136.424 45.149 136.561 45.302 136.835 L 45.356 136.96 L 52.916 160.801 C 53.028 161.155 52.832 161.534 52.478 161.646 C 52.123 161.758 51.745 161.562 51.632 161.207 L 44.073 137.368 L 44.044 137.234 C 44.011 136.923 44.2 136.621 44.51 136.522 Z" fill="currentColor" fill-rule="nonzero"></path>
  <path d="M 57.314 100.604 L 37.314 89.484 C 36.274 88.924 35.914 87.644 36.474 86.644 L 38.154 83.684 C 38.714 82.684 39.994 82.324 41.034 82.924 L 54.234 90.244 C 55.274 90.804 56.554 90.484 57.114 89.484 L 79.914 48.484 C 80.474 47.484 81.754 47.124 82.794 47.684 L 85.874 49.364 C 86.914 49.924 87.274 51.204 86.714 52.204 L 60.234 99.804 C 59.634 100.804 58.354 101.164 57.314 100.604 Z" fill="currentColor" fill-rule="nonzero"></path>
</svg>