<svg xmlns="http://www.w3.org/2000/svg" width="159.493" height="157.640" viewBox="0 0 159.493 157.640" fill="none">
  <path d="M 30.873 102.687 L 30.872 103.203 L 30.75 157.64 L 7.047 150.469 L 7.17 95.515 L 30.873 102.687 Z M 8.433 149.439 L 29.369 155.774 L 29.486 103.715 L 8.549 97.38 L 8.433 149.439 Z" fill="currentColor" fill-rule="nonzero"></path>
  <path d="M 53.262 96.168 L 30.542 102.921 L 30.422 157.272 L 53.262 150.156 L 53.262 96.168 Z" fill="currentColor" fill-rule="nonzero"></path>
  <path d="M 30.924 88.197 L 53.364 95.915 L 52.914 97.227 L 30.69 89.582 L 7.791 96.949 L 7.367 95.63 L 30.487 88.193 L 30.706 88.122 L 30.924 88.197 Z" fill="currentColor" fill-rule="nonzero"></path>
  <path d="M 83.794 81.378 L 83.791 81.858 L 83.468 157.635 L 60.557 149.806 L 60.086 149.645 L 60.372 72.449 L 83.794 81.378 Z M 61.473 148.654 L 82.091 155.699 L 82.405 82.331 L 61.748 74.457 L 61.473 148.654 Z" fill="currentColor" fill-rule="nonzero"></path>
  <path d="M 106.06 73.213 L 83.34 81.373 L 83.18 157.231 L 105.9 149.392 L 106.06 73.213 Z" fill="currentColor" fill-rule="nonzero"></path>
  <path d="M 106.189 72.929 L 105.692 74.223 L 83.653 65.753 L 61.055 73.906 L 60.586 72.602 L 83.668 64.273 L 106.189 72.929 Z" fill="currentColor" fill-rule="nonzero"></path>
  <path d="M 137.274 50.648 L 136.747 157.619 L 113.047 148.954 L 113.331 42.626 L 137.274 50.648 Z M 114.433 147.985 L 135.372 155.64 L 135.885 51.643 L 114.709 44.549 L 114.433 147.985 Z" fill="currentColor" fill-rule="nonzero"></path>
  <path d="M 159.418 43.506 L 136.578 50.702 L 136.418 157.232 L 159.178 148.629 L 159.418 43.506 Z" fill="currentColor" fill-rule="nonzero"></path>
  <path d="M 137.133 35.257 L 159.493 43.257 L 159.028 44.562 L 136.889 36.642 L 113.994 44.086 L 113.566 42.768 L 136.911 35.177 L 137.133 35.257 Z" fill="currentColor" fill-rule="nonzero"></path>
  <path d="M 138.93 1.705 L 74.085 46.35 L 40.937 30.934 L 1.077 80.401 L 0 79.531 L 40.54 29.221 L 73.951 44.759 L 138.147 0.563 L 138.93 1.705 Z" fill="currentColor" fill-rule="nonzero"></path>
  <path d="M 139.462 0.171 L 138.992 11.415 L 137.609 11.357 L 138.019 1.536 L 127.57 1.386 L 127.591 0 L 139.462 0.171 Z" fill="currentColor" fill-rule="nonzero"></path>
</svg>